<svg xmlns="http://www.w3.org/2000/svg" width="1200" height="624" viewBox="0 0 1200 624" font-family="Microsoft YaHei, SimHei, PingFang SC, sans-serif"><defs><marker id="ah" viewBox="0 0 10 10" refX="9" refY="5" markerWidth="7" markerHeight="7" orient="auto-start-reverse"><path d="M0,0 L10,5 L0,10 z" fill="#333333"/></marker></defs><rect width="1200" height="624" fill="#fff"/><rect x="100.0" y="22.0" width="26.0" height="16.0" rx="4" fill="#ffffff" stroke="#333333" stroke-width="1.4"/><text x="134.0" y="35.0" font-size="12.5" font-weight="400" fill="#1a1a1a" text-anchor="start">dict_only（只用规则）</text><rect x="298.9" y="22.0" width="26.0" height="16.0" rx="4" fill="#a6a6a6" stroke="#333333" stroke-width="1.4"/><text x="332.9" y="35.0" font-size="12.5" font-weight="400" fill="#1a1a1a" text-anchor="start">llm_fulltext（只用模型）</text><rect x="518.4" y="22.0" width="26.0" height="16.0" rx="4" fill="#3d3d3d" stroke="#333333" stroke-width="1.4"/><text x="552.4" y="35.0" font-size="12.5" font-weight="400" fill="#1a1a1a" text-anchor="start">hybrid（规则先判，其余交给模型，再复核技能栏）</text><polyline points="100.0,430.0 1160.0,430.0" fill="none" stroke="#333333" stroke-width="1.4"/><text x="92.0" y="434.0" font-size="12" font-weight="400" fill="#555555" text-anchor="end">0</text><polyline points="100.0,358.0 1160.0,358.0" fill="none" stroke="#d0d0d0" stroke-width="1"/><text x="92.0" y="362.0" font-size="12" font-weight="400" fill="#555555" text-anchor="end">20</text><polyline points="100.0,286.0 1160.0,286.0" fill="none" stroke="#d0d0d0" stroke-width="1"/><text x="92.0" y="290.0" font-size="12" font-weight="400" fill="#555555" text-anchor="end">40</text><polyline points="100.0,214.0 1160.0,214.0" fill="none" stroke="#d0d0d0" stroke-width="1"/><text x="92.0" y="218.0" font-size="12" font-weight="400" fill="#555555" text-anchor="end">60</text><polyline points="100.0,142.0 1160.0,142.0" fill="none" stroke="#d0d0d0" stroke-width="1"/><text x="92.0" y="146.0" font-size="12" font-weight="400" fill="#555555" text-anchor="end">80</text><polyline points="100.0,70.0 1160.0,70.0" fill="none" stroke="#d0d0d0" stroke-width="1"/><text x="92.0" y="74.0" font-size="12" font-weight="400" fill="#555555" text-anchor="end">100</text><text x="52.0" y="250.0" font-size="13" font-weight="400" fill="#1a1a1a" text-anchor="middle" transform="rotate(-90 52.0 250.0)">与标准答案的一致率（%）</text><rect x="131.7" y="70.0" width="28.0" height="360.0" rx="0" fill="#ffffff" stroke="#333333" stroke-width="1"/><text x="145.7" y="65.0" font-size="11" font-weight="400" fill="#1a1a1a" text-anchor="middle">100</text><rect x="161.7" y="70.0" width="28.0" height="360.0" rx="0" fill="#a6a6a6" stroke="#333333" stroke-width="1"/><text x="175.7" y="65.0" font-size="11" font-weight="400" fill="#1a1a1a" text-anchor="middle">100</text><rect x="191.7" y="70.0" width="28.0" height="360.0" rx="0" fill="#3d3d3d" stroke="#333333" stroke-width="1"/><text x="205.7" y="65.0" font-size="11" font-weight="400" fill="#1a1a1a" text-anchor="middle">100</text><text x="175.7" y="450.0" font-size="12.5" font-weight="400" fill="#1a1a1a" text-anchor="middle">项目里用过的技能</text><text x="175.7" y="466.0" font-size="12.5" font-weight="400" fill="#1a1a1a" text-anchor="middle">（满足）</text><rect x="283.1" y="70.0" width="28.0" height="360.0" rx="0" fill="#ffffff" stroke="#333333" stroke-width="1"/><text x="297.1" y="65.0" font-size="11" font-weight="400" fill="#1a1a1a" text-anchor="middle">100</text><rect x="313.1" y="124.0" width="28.0" height="306.0" rx="0" fill="#a6a6a6" stroke="#333333" stroke-width="1"/><text x="327.1" y="119.0" font-size="11" font-weight="400" fill="#1a1a1a" text-anchor="middle">85.0</text><rect x="343.1" y="70.0" width="28.0" height="360.0" rx="0" fill="#3d3d3d" stroke="#333333" stroke-width="1"/><text x="357.1" y="65.0" font-size="11" font-weight="400" fill="#1a1a1a" text-anchor="middle">100</text><text x="327.1" y="450.0" font-size="12.5" font-weight="400" fill="#1a1a1a" text-anchor="middle">只写在技能栏</text><text x="327.1" y="466.0" font-size="12.5" font-weight="400" fill="#1a1a1a" text-anchor="middle">（部分满足）</text><rect x="434.6" y="70.0" width="28.0" height="360.0" rx="0" fill="#ffffff" stroke="#333333" stroke-width="1"/><text x="448.6" y="65.0" font-size="11" font-weight="400" fill="#1a1a1a" text-anchor="middle">100</text><rect x="464.6" y="70.0" width="28.0" height="360.0" rx="0" fill="#a6a6a6" stroke="#333333" stroke-width="1"/><text x="478.6" y="65.0" font-size="11" font-weight="400" fill="#1a1a1a" text-anchor="middle">100</text><rect x="494.6" y="70.0" width="28.0" height="360.0" rx="0" fill="#3d3d3d" stroke="#333333" stroke-width="1"/><text x="508.6" y="65.0" font-size="11" font-weight="400" fill="#1a1a1a" text-anchor="middle">100</text><text x="478.6" y="450.0" font-size="12.5" font-weight="400" fill="#1a1a1a" text-anchor="middle">简历里没有的技能</text><text x="478.6" y="466.0" font-size="12.5" font-weight="400" fill="#1a1a1a" text-anchor="middle">（不满足）</text><text x="600.0" y="425.0" font-size="11" font-weight="400" fill="#1a1a1a" text-anchor="middle">0</text><rect x="616.0" y="70.0" width="28.0" height="360.0" rx="0" fill="#a6a6a6" stroke="#333333" stroke-width="1"/><text x="630.0" y="65.0" font-size="11" font-weight="400" fill="#1a1a1a" text-anchor="middle">100</text><rect x="646.0" y="70.0" width="28.0" height="360.0" rx="0" fill="#3d3d3d" stroke="#333333" stroke-width="1"/><text x="660.0" y="65.0" font-size="11" font-weight="400" fill="#1a1a1a" text-anchor="middle">100</text><text x="630.0" y="450.0" font-size="12.5" font-weight="400" fill="#1a1a1a" text-anchor="middle">A 或 B 有其一</text><text x="630.0" y="466.0" font-size="12.5" font-weight="400" fill="#1a1a1a" text-anchor="middle">（满足）</text><text x="751.4" y="425.0" font-size="11" font-weight="400" fill="#1a1a1a" text-anchor="middle">0</text><rect x="767.4" y="70.0" width="28.0" height="360.0" rx="0" fill="#a6a6a6" stroke="#333333" stroke-width="1"/><text x="781.4" y="65.0" font-size="11" font-weight="400" fill="#1a1a1a" text-anchor="middle">100</text><rect x="797.4" y="70.0" width="28.0" height="360.0" rx="0" fill="#3d3d3d" stroke="#333333" stroke-width="1"/><text x="811.4" y="65.0" font-size="11" font-weight="400" fill="#1a1a1a" text-anchor="middle">100</text><text x="781.4" y="450.0" font-size="12.5" font-weight="400" fill="#1a1a1a" text-anchor="middle">描述里有依据</text><text x="781.4" y="466.0" font-size="12.5" font-weight="400" fill="#1a1a1a" text-anchor="middle">（满足）</text><rect x="888.9" y="70.0" width="28.0" height="360.0" rx="0" fill="#ffffff" stroke="#333333" stroke-width="1"/><text x="902.9" y="65.0" font-size="11" font-weight="400" fill="#1a1a1a" text-anchor="middle">100</text><rect x="918.9" y="70.0" width="28.0" height="360.0" rx="0" fill="#a6a6a6" stroke="#333333" stroke-width="1"/><text x="932.9" y="65.0" font-size="11" font-weight="400" fill="#1a1a1a" text-anchor="middle">100</text><rect x="948.9" y="70.0" width="28.0" height="360.0" rx="0" fill="#3d3d3d" stroke="#333333" stroke-width="1"/><text x="962.9" y="65.0" font-size="11" font-weight="400" fill="#1a1a1a" text-anchor="middle">100</text><text x="932.9" y="450.0" font-size="12.5" font-weight="400" fill="#1a1a1a" text-anchor="middle">学历 / 年限 / 英语</text><text x="932.9" y="466.0" font-size="12.5" font-weight="400" fill="#1a1a1a" text-anchor="middle">（满足或不满足）</text><rect x="1040.3" y="160.0" width="28.0" height="270.0" rx="0" fill="#ffffff" stroke="#333333" stroke-width="1"/><text x="1054.3" y="155.0" font-size="11" font-weight="400" fill="#1a1a1a" text-anchor="middle">75.0</text><rect x="1070.3" y="76.8" width="28.0" height="353.2" rx="0" fill="#a6a6a6" stroke="#333333" stroke-width="1"/><text x="1084.3" y="71.8" font-size="11" font-weight="400" fill="#1a1a1a" text-anchor="middle">98.1</text><rect x="1100.3" y="70.0" width="28.0" height="360.0" rx="0" fill="#3d3d3d" stroke="#333333" stroke-width="1"/><text x="1114.3" y="65.0" font-size="11" font-weight="400" fill="#1a1a1a" text-anchor="middle">100</text><text x="1084.3" y="450.0" font-size="12.5" font-weight="400" fill="#1a1a1a" text-anchor="middle">总体</text><text x="100.0" y="540.0" font-size="12.5" font-weight="400" fill="#555555" text-anchor="start">20 份简历 × 8 条要求 = 160 条，满足与否在造数据时就定好；dict_only、llm_fulltext 重复 3 次；hybrid 是加了技能栏复核之后的（实跑 1 次 + 离线重算 3 次都是 100%），</text><text x="100.0" y="564.0" font-size="12.5" font-weight="400" fill="#555555" text-anchor="start">加复核之前 hybrid 总体 97.7±0.4%、只写在技能栏 81.7±2.9%（模型看到「专业技能中列出了 X」就判满足）。</text><text x="100.0" y="588.0" font-size="12.5" font-weight="400" fill="#555555" text-anchor="start">每份交给模型的条数 / 花费 / 用时：dict_only 0 / 0 元 / 毫秒级；llm_fulltext 8 / ¥0.0092 / 2.5 s；hybrid 5 / ¥0.0067 / 1.9 s。</text></svg>
